<?xml version="1.0" encoding="utf-8"?>
<!-- Generator: Adobe Illustrator 16.0.0, SVG Export Plug-In . SVG Version: 6.00 Build 0)  -->
<!DOCTYPE svg PUBLIC "-//W3C//DTD SVG 1.1//EN" "http://www.w3.org/Graphics/SVG/1.1/DTD/svg11.dtd">
<svg version="1.1" id="Layer_1" xmlns="http://www.w3.org/2000/svg" xmlns:xlink="http://www.w3.org/1999/xlink" x="0px" y="0px"
	 width="102.128px" height="70.11px" viewBox="0 0 102.128 70.11" enable-background="new 0 0 102.128 70.11" xml:space="preserve">
<path fill-rule="evenodd" clip-rule="evenodd" fill="#ED2891" d="M5.185,11.12c-0.08-0.29-0.24-0.47-0.47-0.58
	c-0.25-0.08-0.52-0.1-0.77-0.03c-0.55,0.15-0.89,0.46-1.01,0.91c-0.94,0.73-1.66,1.48-2.17,2.32c-0.72,1.1-0.92,2.11-0.65,3.05
	c0.22,0.78,0.66,1.33,1.33,1.68c0.37,0.2,1.01,0.39,1.91,0.52c1.45,0.24,2.27,0.63,2.41,1.12c0.17,0.6-0.05,1.24-0.66,1.87
	c-0.54,0.55-1.13,0.91-1.75,1.08c-0.11,0.03-0.27,0.06-0.48,0.06c-0.25,0.01-0.42,0.02-0.52,0.05c-0.21,0.06-0.35,0.19-0.42,0.4
	c-0.1,0.18-0.12,0.38-0.06,0.59c0.17,0.6,0.79,0.76,1.87,0.45c1.02-0.28,1.92-0.9,2.67-1.81c0.82-1,1.1-2.03,0.8-3.08
	c-0.2-0.72-0.65-1.27-1.32-1.63c-0.43-0.23-1.1-0.42-1.99-0.6c-1.43-0.25-2.21-0.62-2.34-1.08c-0.2-0.71,0.12-1.53,0.96-2.49
	c0.67-0.79,1.45-1.43,2.34-1.91C5.195,11.82,5.305,11.53,5.185,11.12z"/>
<path fill-rule="evenodd" clip-rule="evenodd" fill="#ED2891" d="M16.655,20.56l-0.47-1.11c-0.34-0.8-0.61-1.57-0.82-2.31
	c-0.03-0.11-0.11-0.39-0.2-0.84c-0.09-0.46-0.13-0.71-0.14-0.77c-0.09-0.28-0.27-0.52-0.51-0.72c-0.24-0.16-0.49-0.22-0.76-0.15
	c-0.31,0.09-0.89,0.69-1.69,1.79c-0.77,1.04-1.27,1.85-1.52,2.44c-0.27-1.69-0.43-2.77-0.47-3.26l-0.26-2.93
	c-0.11-1.08-0.17-1.89-0.21-2.44c-0.05-0.52-0.08-0.82-0.11-0.91c-0.07-0.25-0.23-0.47-0.47-0.67c-0.24-0.2-0.47-0.27-0.7-0.21
	c-0.28,0.08-0.39,0.44-0.33,1.05l0.58,5.96c0.15,1.72,0.48,3.42,0.96,5.12c0.03,0.11,0.09,0.31,0.18,0.57l0.14,0.47
	c0.07,0.25,0.23,0.47,0.47,0.65c0.26,0.16,0.52,0.2,0.78,0.13c0.14-0.04,0.25-0.28,0.35-0.73c0.06-0.3,0.11-0.62,0.15-0.94
	c0.23-0.96,0.97-2.26,2.22-3.89l0.7,2.12c0.55,1.68,1.18,2.4,1.92,2.2C16.655,21.12,16.715,20.91,16.655,20.56z"/>
<path fill-rule="evenodd" clip-rule="evenodd" fill="#ED2891" d="M19.865,13.41c-0.21-0.75-0.7-1.01-1.48-0.79
	c-0.25,0.22-0.31,0.45-0.25,0.68c0.02,0.07,0.08,0.21,0.17,0.41c0.09,2.14,0.24,3.55,0.44,4.24c0.41,1.46,1,2.07,1.82,1.85
	c0.1-0.03,0.2-0.12,0.27-0.25c0.08-0.14,0.12-0.25,0.09-0.35c-0.09-0.32-0.29-0.55-0.58-0.7c-0.26-1.07-0.41-2.33-0.44-3.82
	L19.865,13.41z M18.745,6.3c-0.21-0.75-0.62-1.05-1.25-0.95c-0.44,0.31-0.62,0.65-0.51,1.02c0.21,0.75,0.59,1.14,1.15,1.18
	c0.16,0.01,0.27,0,0.33-0.02C18.855,7.419,18.945,7.01,18.745,6.3z"/>
<path fill-rule="evenodd" clip-rule="evenodd" fill="#ED2891" d="M26.965,10.58c0.41,1.46-0.23,2.78-1.9,3.98
	c-0.27-0.96-0.38-1.98-0.32-3.03c0.08-1.16,0.37-1.81,0.87-1.95c0.3-0.09,0.59-0.01,0.86,0.18
	C26.705,9.959,26.875,10.24,26.965,10.58z M28.475,10.479c-0.24-0.85-0.64-1.51-1.19-1.97c-0.6-0.5-1.31-0.64-2.09-0.43
	c-1.12,0.32-1.77,1.34-1.95,3.08c-0.12,1.2,0.02,2.51,0.41,3.89c0.05,0.18,0.09,0.32,0.13,0.4c-0.45,0.32-0.6,0.65-0.5,1.02
	c0.13,0.46,0.43,0.65,0.94,0.54c0.12,0.28,0.25,0.7,0.41,1.26c0.32,1.14,0.48,1.95,0.51,2.48c0.01,0.51,0.03,0.79,0.05,0.85
	c0.05,0.19,0.17,0.35,0.36,0.47c0.18,0.1,0.38,0.14,0.58,0.08c0.37-0.1,0.53-0.55,0.48-1.32c-0.05-0.86-0.19-1.72-0.42-2.53
	c-0.21-0.75-0.45-1.46-0.7-2.16C28.025,14.33,29.025,12.439,28.475,10.479z"/>
<path fill-rule="evenodd" clip-rule="evenodd" fill="#ED2891" d="M38.595,8.169c-0.21-0.75-0.7-1.01-1.49-0.79
	c-0.24,0.22-0.31,0.45-0.25,0.68c0.02,0.07,0.08,0.21,0.18,0.41c0.08,2.14,0.22,3.56,0.42,4.25c0.4,1.46,1,2.07,1.81,1.85
	c0.11-0.03,0.2-0.12,0.28-0.25c0.07-0.14,0.12-0.25,0.09-0.35c-0.09-0.32-0.29-0.56-0.58-0.7c-0.26-1.08-0.4-2.34-0.43-3.83
	L38.595,8.169z M37.495,1.05c-0.21-0.75-0.62-1.06-1.25-0.96c-0.44,0.32-0.62,0.66-0.51,1.03c0.2,0.75,0.58,1.14,1.15,1.18
	c0.15,0.01,0.27,0,0.32-0.02C37.595,2.169,37.695,1.76,37.495,1.05z"/>
<path fill-rule="evenodd" clip-rule="evenodd" fill="#ED2891" d="M46.855,5.24c-0.16-0.57-0.76-0.72-1.81-0.49l-1.32,0.33
	c-0.08-1.24-0.11-2.25-0.1-3.04c0.02-0.54,0.05-1.01,0.05-1.42c-0.2-0.52-0.52-0.71-0.99-0.58c-0.32,0.09-0.48,0.34-0.48,0.75
	c-0.02,1.15-0.01,2.73,0.05,4.74c-0.42,0.12-0.67,0.25-0.8,0.36c-0.18,0.17-0.23,0.41-0.14,0.73c0.14,0.52,0.48,0.69,1.03,0.54
	l0.18,2.71c0.09,1.22,0.22,2.1,0.37,2.63c0.26,0.96,0.69,1.38,1.27,1.21c0.18-0.05,0.32-0.16,0.46-0.35
	c0.11-0.21,0.16-0.39,0.11-0.57c-0.08-0.29-0.22-0.46-0.44-0.55c-0.18-0.79-0.33-1.72-0.39-2.78c-0.02-0.36-0.06-1.26-0.13-2.74
	c0.18-0.05,0.5-0.12,1-0.26c0.5-0.12,0.8-0.21,0.93-0.24c0.23,0.13,0.48,0.13,0.73,0.06c0.16-0.04,0.29-0.18,0.38-0.39
	C46.895,5.669,46.915,5.459,46.855,5.24z"/>
<path fill-rule="evenodd" clip-rule="evenodd" fill="#ED2891" d="M51.865,10.05c-0.14-0.52-0.48-0.71-0.99-0.57
	c-0.68,0.19-0.9,0.92-0.66,2.18c-0.24,0.96-0.56,1.86-0.97,2.68c-0.09,0.2-0.11,0.41-0.05,0.62c0.13,0.47,0.4,0.64,0.81,0.52
	c0.23-0.06,0.4-0.21,0.53-0.43c0.36-0.7,0.68-1.49,0.95-2.39C51.845,11.34,51.985,10.47,51.865,10.05z"/>
<path fill-rule="evenodd" clip-rule="evenodd" fill="#ED2891" d="M34.885,25.59c-0.04-0.19-0.21-0.39-0.5-0.57
	c-0.3-0.17-0.51-0.24-0.67-0.21c-0.13,0.03-0.19,0.16-0.21,0.38c-0.22,2.49-0.1,4.75,0.31,6.78c0.22,1.03,0.41,1.88,0.6,2.5
	c-0.06,0.18-0.07,0.38-0.02,0.62c0.01,0.06,0.05,0.24,0.13,0.54c0.07,0.32,0.12,0.49,0.13,0.55c0.05,0.24,0.2,0.51,0.5,0.8
	c0.29,0.3,0.56,0.45,0.78,0.4c0.16-0.03,0.22-0.13,0.19-0.29c-0.42-1.24-0.82-2.85-1.23-4.81c-0.16-0.82-0.31-1.83-0.39-3.05
	c-0.1-1.13-0.12-2.06-0.09-2.78l0.09-0.12C34.815,26.1,34.945,25.84,34.885,25.59z"/>
<path fill-rule="evenodd" clip-rule="evenodd" fill="#ED2891" d="M39.285,30.6c-0.1-0.51-0.47-0.74-1.06-0.65
	c-0.14,0.13-0.2,0.27-0.17,0.42c0.01,0.04,0.05,0.17,0.12,0.35c0.01,2.3,0.07,3.63,0.15,4.05c0.11,0.51,0.27,0.89,0.49,1.17
	c0.29,0.36,0.56,0.52,0.82,0.47c0.19-0.04,0.28-0.18,0.23-0.4c-0.05-0.25-0.22-0.49-0.47-0.67c-0.17-0.82-0.23-2.02-0.17-3.6
	L39.285,30.6z M38.915,24.39c-0.14-0.67-0.48-0.96-1.02-0.92c-0.39,0.23-0.57,0.52-0.53,0.87c0.03,0.12,0.06,0.21,0.08,0.31
	c0.12,0.56,0.49,0.83,1.14,0.81C38.925,25.36,39.035,25,38.915,24.39z"/>
<path fill-rule="evenodd" clip-rule="evenodd" fill="#ED2891" d="M47.075,27.25c-0.07-0.32-0.29-0.46-0.66-0.38
	c-0.05,0.01-0.15,0.11-0.31,0.3c-0.75,0.82-2,1.65-3.75,2.51c-0.18-1.84-0.31-3.6-0.37-5.28l-0.02-0.82
	c-0.05-0.28-0.26-0.41-0.58-0.34c-0.28,0.05-0.4,0.26-0.4,0.61c0.02,1.4,0.11,2.96,0.3,4.72c0.16,1.77,0.36,3.22,0.59,4.35
	c0.02,0.07,0.04,0.16,0.08,0.29c0.03,0.14,0.06,0.22,0.06,0.22c0.01,0.03,0.01,0.1,0.02,0.18c0,0.08,0.01,0.13,0.02,0.16
	c-0.06,0.13-0.06,0.26-0.03,0.42c0.06,0.29,0.16,0.53,0.3,0.77c0.2,0.29,0.39,0.4,0.6,0.36c0.3-0.06,0.42-0.3,0.33-0.75
	c-0.02-0.1-0.13-0.54-0.3-1.37c-0.21-0.92-0.32-1.46-0.35-1.61c1.41,1.01,2.69,1.88,3.82,2.63c0.5,0.33,0.82,0.48,0.98,0.45
	c0.35-0.08,0.49-0.29,0.42-0.64c-0.03-0.11-0.09-0.2-0.19-0.27l-1.18-0.78c-1.54-1.01-2.7-1.82-3.49-2.39
	c1.31-0.65,2.27-1.23,2.93-1.75C46.755,28.16,47.155,27.63,47.075,27.25z"/>
<path fill-rule="evenodd" clip-rule="evenodd" fill="#ED2891" d="M52.815,28.47c0.09,0.43-0.02,0.87-0.32,1.31
	c-0.28,0.48-0.67,0.87-1.14,1.2c-0.07-0.22-0.14-0.44-0.18-0.63c-0.1-0.51-0.09-1.04,0.04-1.57c0.12-0.52,0.34-0.83,0.66-0.9
	c0.18-0.04,0.37,0.01,0.58,0.12C52.645,28.12,52.775,28.28,52.815,28.47z M55.295,32.63c-0.03-0.12-0.1-0.23-0.22-0.33
	s-0.23-0.14-0.36-0.11c-0.08,0.01-0.25,0.07-0.53,0.16c-0.29,0.12-0.51,0.18-0.66,0.21c-0.7,0.15-1.26-0.09-1.72-0.69
	c0.64-0.45,1.15-1,1.51-1.66c0.41-0.71,0.56-1.37,0.43-2.01c-0.08-0.42-0.32-0.75-0.67-1.01c-0.5-0.33-0.95-0.48-1.35-0.39
	c-0.66,0.13-1.12,0.66-1.38,1.56c-0.24,0.8-0.28,1.59-0.13,2.36c0.05,0.24,0.12,0.47,0.22,0.72c-0.09,0.03-0.21,0.06-0.3,0.07
	c-0.27,0.06-0.56,0.04-0.87-0.08c-0.31-0.14-0.49-0.2-0.54-0.19c-0.32,0.06-0.44,0.27-0.37,0.62c0.05,0.26,0.29,0.46,0.74,0.6
	c0.36,0.14,0.83,0.15,1.39,0.03c0.16-0.03,0.31-0.08,0.43-0.14c0.79,1.07,1.8,1.48,3.05,1.22
	C54.925,33.37,55.375,33.05,55.295,32.63z"/>
<path fill-rule="evenodd" clip-rule="evenodd" fill="#ED2891" d="M64.785,26.459c0.14,0.71-0.03,1.49-0.49,2.38
	c-0.45,0.9-0.97,1.38-1.58,1.51c-0.45,0.09-0.71-0.14-0.82-0.7c-0.11-0.52,0.08-1.23,0.6-2.12c0.2-0.35,0.47-0.73,0.83-1.12
	c0.38-0.42,0.68-0.67,0.89-0.71C64.475,25.65,64.675,25.9,64.785,26.459z M65.995,26.68c-0.02-0.11-0.11-0.24-0.27-0.37
	c-0.08-0.4-0.22-0.76-0.41-1.05c0.01-0.12,0.01-0.2,0-0.24c-0.03-0.17-0.16-0.31-0.35-0.42c-0.2-0.1-0.4-0.14-0.56-0.11
	c-0.73,0.15-1.52,0.82-2.38,1.99c-0.28,0.39-0.47,0.7-0.56,0.88c-0.51,0.97-0.67,1.8-0.53,2.54c0.1,0.46,0.32,0.85,0.7,1.14
	c0.39,0.35,0.79,0.46,1.23,0.38c0.81-0.17,1.56-0.87,2.23-2.11l0.4,1.27c0.15,0.5,0.38,0.73,0.7,0.67c0.34-0.07,0.48-0.27,0.42-0.57
	c-0.01-0.03-0.12-0.26-0.31-0.72c-0.11-0.24-0.19-0.51-0.24-0.78c-0.15-0.73-0.18-1.48-0.07-2.2
	C65.995,26.85,66.015,26.75,65.995,26.68z"/>
<path fill-rule="evenodd" clip-rule="evenodd" fill="#ED2891" d="M77.905,24.31c0.14,0.68-0.19,1.47-0.95,2.34
	c-0.68,0.77-1.4,1.35-2.2,1.71c-0.09-0.31-0.15-0.58-0.19-0.81c-0.04-0.2-0.03-0.46,0.05-0.74c0.26-0.88,0.69-1.67,1.29-2.39
	c0.38-0.46,0.73-0.73,1.02-0.79C77.465,23.51,77.795,23.75,77.905,24.31z M78.815,24.1c-0.1-0.54-0.34-0.96-0.7-1.25
	c-0.35-0.3-0.81-0.39-1.32-0.28c-0.9,0.18-1.8,1.18-2.75,2.99c-0.39-2.48-0.62-4.4-0.66-5.78c0.12-0.09,0.2-0.24,0.24-0.45
	c0.04-0.17,0.05-0.52,0.04-1.02c-0.01-0.43-0.02-0.76-0.06-0.96c-0.09-0.46-0.32-0.67-0.67-0.59c-0.31,0.06-0.46,0.53-0.46,1.38
	c-0.02,2.79,0.27,5.54,0.81,8.28c0.15,0.77,0.33,1.5,0.53,2.19c-0.24,0.21-0.35,0.42-0.34,0.61c0.17,0.34,0.44,0.46,0.84,0.38
	c0.26-0.05,0.63-0.23,1.14-0.5c0.48-0.26,0.92-0.57,1.3-0.9c0.72-0.61,1.25-1.27,1.64-2C78.795,25.419,78.945,24.729,78.815,24.1z"
	/>
<path fill-rule="evenodd" clip-rule="evenodd" fill="#ED2891" d="M84.575,23.35c0.11,0.53,0.04,1.11-0.2,1.75
	c-0.27,0.68-0.6,1.06-1.01,1.15c-0.39,0.08-0.72-0.02-1.03-0.32c-0.31-0.27-0.5-0.65-0.6-1.14c-0.12-0.63-0.1-1.21,0.08-1.75
	c0.21-0.61,0.59-0.99,1.14-1.14c0.18,0.07,0.42,0.09,0.68,0.03C84.105,22.14,84.435,22.6,84.575,23.35z M85.465,22.919
	c-0.12-0.59-0.41-1.11-0.84-1.56c-0.46-0.44-0.98-0.7-1.56-0.79c-0.21-0.03-0.34-0.03-0.38-0.03c-0.08,0.02-0.15,0.05-0.21,0.08
	c-0.1,0.19-0.28,0.37-0.54,0.58c-0.49,0.4-0.83,0.97-1.03,1.73c-0.2,0.7-0.23,1.39-0.1,2.05c0.14,0.72,0.46,1.3,0.97,1.75
	c0.53,0.52,1.13,0.69,1.81,0.56c0.42-0.09,0.79-0.37,1.17-0.81c0.38-0.44,0.6-0.89,0.67-1.35l0.1-0.62
	C85.605,24.08,85.585,23.55,85.465,22.919z"/>
<path fill-rule="evenodd" clip-rule="evenodd" fill="#ED2891" d="M90.405,19.41c-0.08-0.13-0.13-0.24-0.17-0.32
	c-0.13-0.27-0.28-0.41-0.43-0.42c-0.31-0.02-0.56-0.02-0.73,0.01c-0.45,0.1-0.72,0.28-0.76,0.56c-0.69,0.42-0.95,0.98-0.81,1.68
	c0.06,0.29,0.16,0.57,0.33,0.85l0.54,0.84c0.72,1.22,1.11,1.95,1.16,2.18c0.1,0.51-0.24,0.83-1.01,0.98
	c-0.14,0.03-0.36,0.06-0.64,0.07c-0.29,0.03-0.46,0.04-0.52,0.06c-0.27,0.05-0.36,0.29-0.28,0.69c0.07,0.35,0.6,0.44,1.6,0.23
	c0.61-0.12,1.08-0.33,1.43-0.62c0.39-0.37,0.54-0.8,0.44-1.32c-0.08-0.42-0.4-1.07-0.92-1.98c-0.22-0.35-0.44-0.71-0.68-1.06
	c-0.29-0.44-0.43-0.74-0.46-0.89c-0.09-0.46,0.12-0.76,0.67-0.87c0.09-0.02,0.24-0.03,0.44-0.06c0.2,0,0.34-0.03,0.44-0.05
	C90.315,19.91,90.435,19.74,90.405,19.41z"/>
<path fill-rule="evenodd" clip-rule="evenodd" fill="#ED2891" d="M96.425,18.169c-0.07-0.13-0.13-0.24-0.16-0.31
	c-0.14-0.27-0.28-0.41-0.43-0.43c-0.31-0.02-0.56-0.02-0.74,0.02c-0.45,0.09-0.71,0.28-0.76,0.55c-0.68,0.43-0.94,0.98-0.81,1.69
	c0.06,0.28,0.16,0.56,0.34,0.84l0.53,0.85c0.72,1.21,1.11,1.95,1.16,2.17c0.1,0.51-0.24,0.83-1.01,0.99
	c-0.15,0.03-0.36,0.06-0.64,0.07c-0.3,0.02-0.46,0.04-0.52,0.05c-0.28,0.06-0.37,0.29-0.29,0.69c0.07,0.36,0.61,0.45,1.6,0.24
	c0.61-0.12,1.09-0.34,1.43-0.62c0.4-0.37,0.55-0.8,0.45-1.33c-0.08-0.41-0.4-1.07-0.92-1.97c-0.22-0.36-0.44-0.71-0.68-1.06
	c-0.28-0.45-0.43-0.75-0.45-0.89c-0.1-0.47,0.11-0.76,0.66-0.87c0.1-0.02,0.25-0.04,0.44-0.06c0.2-0.01,0.35-0.04,0.44-0.06
	C96.345,18.68,96.455,18.5,96.425,18.169z"/>
<path fill-rule="evenodd" clip-rule="evenodd" fill="#ED2891" d="M102.105,23.34c-0.09-0.46-0.29-0.72-0.57-0.78
	c-0.14-0.05-0.25-0.08-0.34-0.06c-0.49,0.1-0.7,0.39-0.64,0.88c0.03,0.14,0.05,0.25,0.1,0.32c0.06,0.13,0.16,0.22,0.34,0.27
	c0.16,0.18,0.36,0.26,0.59,0.21C102.015,24.09,102.195,23.81,102.105,23.34z M100.795,12.5c-0.07-0.33-0.25-0.48-0.52-0.42
	c-0.19,0.04-0.38,0.21-0.56,0.48c-0.07,0.3-0.1,0.52-0.1,0.69c0,0.16,0,0.26,0.01,0.3c0.02,0.09,0.05,0.19,0.1,0.26
	c0,0.87,0.04,1.83,0.13,2.84c0.06,0.56,0.16,1.35,0.32,2.42c0.12,0.86,0.19,1.33,0.21,1.43c0.06,0.32,0.24,0.45,0.54,0.39
	c0.29-0.06,0.42-0.27,0.38-0.66c-0.09-0.52-0.21-1.48-0.36-2.88c-0.17-1.39-0.21-2.83-0.15-4.31
	C100.805,12.75,100.805,12.57,100.795,12.5z"/>
<path fill-rule="evenodd" clip-rule="evenodd" fill="none" stroke="#ED2891" stroke-linecap="round" stroke-miterlimit="10" d="
	M24.965,28.479c-8.28,5.42-19.53,19.03-15.63,36.88"/>
<polyline fill-rule="evenodd" clip-rule="evenodd" fill="none" stroke="#ED2891" stroke-width="3" stroke-linecap="round" stroke-miterlimit="10" points="
	4.373,60.863 9.31,67.423 13.412,60.538 "/>
</svg>